<svg width="152" height="24" viewBox="0 0 152 24" fill="none" xmlns="http://www.w3.org/2000/svg">
<path fill-rule="evenodd" clip-rule="evenodd" d="M13.9711 0H17.5027V11.6906L21.8914 5.54807H25.907L20.5191 12.528L25.907 19.5073H21.8914L17.5027 13.3653V19.5073H13.9711V0ZM27.652 16.1342V18.7735C29.2588 19.2598 30.8523 19.5033 32.4272 19.5033C34.0711 19.5033 35.4018 19.1129 36.4242 18.3276C37.4508 17.5481 37.962 16.5291 37.962 15.2719C37.962 14.3126 37.6585 13.5325 37.0596 12.927C36.4561 12.3163 35.3832 11.7155 33.8501 11.1233L32.8229 10.7243C31.7407 10.3022 31.2022 9.78806 31.2022 9.18259C31.2022 8.2556 31.9345 7.79182 33.3986 7.79182C34.3288 7.79182 35.5033 8.04453 36.9215 8.54937V6.0159C35.4476 5.70421 34.1768 5.54344 33.1084 5.54344C31.4094 5.54344 30.0788 5.89215 29.13 6.59419C28.1858 7.29623 27.7071 8.27816 27.7071 9.54518C27.7071 10.4537 27.988 11.2153 28.545 11.83C29.1021 12.4453 30.0323 13.0236 31.3264 13.5556L32.5235 14.0419C33.7207 14.5283 34.3149 15.0973 34.3149 15.745C34.3149 16.7495 33.5872 17.2543 32.1417 17.2543C30.8981 17.2543 29.4016 16.8784 27.652 16.1342ZM46.9553 13.1201V15.8317C46.0895 16.6483 45.2377 17.0617 44.4177 17.0617C43.925 17.0617 43.52 16.8917 43.1887 16.5523C42.8573 16.2174 42.696 15.7993 42.696 15.3089C42.696 13.8494 43.8334 13.1201 46.1214 13.1201H46.9553ZM46.9553 17.7638C45.7762 18.925 44.5146 19.5033 43.1747 19.5033C42.0281 19.5033 41.0932 19.1447 40.3748 18.4334C39.6564 17.7221 39.3019 16.7905 39.3019 15.6617C39.3019 14.1842 39.8775 13.0507 41.0381 12.2481C42.1987 11.4495 43.856 11.0545 46.0112 11.0545H46.9553V9.83895C46.9553 8.4528 46.1818 7.75539 44.6295 7.75539C43.2484 7.75539 41.8575 8.1544 40.4485 8.94839V6.47044C42.0466 5.85109 43.6308 5.54344 45.2011 5.54344C48.6358 5.54344 50.3489 6.93827 50.3489 9.71462V15.6253C50.3489 16.6668 50.6802 17.1942 51.3435 17.1942C51.4584 17.1942 51.6197 17.1762 51.8083 17.1444L51.8913 19.1586C51.141 19.3882 50.4823 19.5033 49.9067 19.5033C48.4612 19.5033 47.531 18.925 47.112 17.7638H46.9553ZM53.2729 19.5033V5.84647H56.8092V8.36085C57.7214 6.48431 59.1165 5.54344 60.9908 5.54344C61.2113 5.54344 61.4278 5.566 61.6401 5.61689V8.82463C61.1423 8.64074 60.6774 8.54937 60.2445 8.54937C58.8402 8.54937 57.6889 9.27396 56.8092 10.7243V19.5033H53.2729ZM71.089 13.1201V15.8317C70.2139 16.6483 69.3667 17.0617 68.5427 17.0617C68.0541 17.0617 67.6444 16.8917 67.3177 16.5523C66.9864 16.2174 66.825 15.7993 66.825 15.3089C66.825 13.8494 67.9624 13.1201 70.2511 13.1201H71.089ZM71.089 17.7638C69.9104 18.925 68.6437 19.5033 67.2991 19.5033C66.1478 19.5033 65.2223 19.1447 64.5039 18.4334C63.7855 17.7221 63.4263 16.7905 63.4263 15.6617C63.4263 14.1842 64.0112 13.0507 65.1625 12.2481C66.3231 11.4495 67.9804 11.0545 70.1402 11.0545H71.089V9.83895C71.089 8.4528 70.3062 7.75539 68.7586 7.75539C67.3775 7.75539 65.9865 8.1544 64.5729 8.94839V6.47044C66.1757 5.85109 67.7599 5.54344 69.3255 5.54344C72.7602 5.54344 74.4779 6.93827 74.4779 9.71462V15.6253C74.4779 16.6668 74.8092 17.1942 75.4679 17.1942C75.588 17.1942 75.7441 17.1762 75.9333 17.1444L76.0163 19.1586C75.27 19.3882 74.6067 19.5033 74.0357 19.5033C72.5856 19.5033 71.6554 18.925 71.241 17.7638H71.089ZM77.4072 5.54344H80.7955V8.36085C81.8319 6.48431 83.3099 5.54344 85.2208 5.54344C86.2021 5.54344 87.0122 5.79153 87.6522 6.28712C88.2969 6.78271 88.684 7.4755 88.8261 8.36085C90.0517 6.48431 91.5291 5.54344 93.27 5.54344C95.6643 5.54344 96.8666 6.88796 96.8666 9.58161V19.5033H93.4725V10.7607C93.4725 9.18259 92.9567 8.38861 91.9162 8.38861C90.8618 8.38861 89.826 9.16871 88.8261 10.7243V19.5033H85.4286V10.7607C85.4286 9.17334 84.9121 8.37936 83.867 8.37936C82.8265 8.37936 81.8 9.15946 80.7955 10.7243V19.5033H77.4072V5.54344ZM134.649 13.1201V15.8317C133.778 16.6483 132.931 17.0617 132.102 17.0617C131.614 17.0617 131.209 16.8917 130.877 16.5523C130.551 16.2174 130.38 15.7993 130.38 15.3089C130.38 13.8494 131.527 13.1201 133.811 13.1201H134.649ZM134.649 17.7638C133.466 18.925 132.208 19.5033 130.859 19.5033C129.712 19.5033 128.783 19.1447 128.064 18.4334C127.346 17.7221 126.991 16.7905 126.991 15.6617C126.991 14.1842 127.567 13.0507 128.727 12.2481C129.883 11.4495 131.545 11.0545 133.7 11.0545H134.649V9.83895C134.649 8.4528 133.871 7.75539 132.314 7.75539C130.938 7.75539 129.547 8.1544 128.137 8.94839V6.47044C129.735 5.85109 131.324 5.54344 132.89 5.54344C136.321 5.54344 138.043 6.93827 138.043 9.71462V15.6253C138.043 16.6668 138.365 17.1942 139.033 17.1942C139.152 17.1942 139.304 17.1762 139.498 17.1444L139.581 19.1586C138.83 19.3882 138.171 19.5033 137.601 19.5033C136.15 19.5033 135.216 18.925 134.801 17.7638H134.649ZM147.243 5.3688C148.081 6.45193 148.781 6.99378 149.338 6.99378C150.121 6.99378 150.517 6.38774 150.517 5.18086C150.517 4.71245 150.388 4.31806 150.144 4.00173C149.9 3.68021 149.596 3.52407 149.233 3.52407C148.887 3.52407 148.588 3.64378 148.33 3.88203C148.072 4.12086 147.708 4.62108 147.243 5.3688ZM142.703 4.22206C143.255 4.22206 143.96 4.79977 144.821 5.97022C144.37 6.66358 144.024 7.11754 143.78 7.33786C143.536 7.56282 143.26 7.67269 142.947 7.67269C142.09 7.67269 141.662 7.10366 141.662 5.97022C141.662 5.46075 141.758 5.04323 141.952 4.71245C142.15 4.38225 142.399 4.22206 142.703 4.22206ZM149.233 1.95056C148.215 1.95056 147.234 2.66185 146.294 4.08848C145.295 2.65722 144.24 1.94073 143.14 1.94073C142.306 1.94073 141.593 2.31719 140.998 3.07012C140.405 3.82709 140.105 4.73153 140.105 5.79153C140.105 6.76883 140.373 7.57149 140.911 8.20066C141.441 8.83331 142.118 9.15021 142.942 9.15021C144.006 9.15021 144.945 8.48981 145.765 7.16785C146.967 8.48981 148.031 9.15021 148.952 9.15021C149.822 9.15021 150.545 8.77895 151.125 8.04453C151.705 7.31011 152 6.39237 152 5.29073C152 4.35044 151.733 3.55646 151.199 2.91398C150.669 2.27151 150.015 1.95056 149.233 1.95056ZM5.12048 17.0617C5.93985 17.0617 6.79229 16.6483 7.65751 15.8317V13.1201H6.82421C4.53555 13.1201 3.39412 13.8494 3.39412 15.3089C3.39412 15.7993 3.5595 16.2174 3.89549 16.5523C4.22277 16.8917 4.62781 17.0617 5.12048 17.0617ZM12.4513 17.1531C12.2853 17.1762 12.1431 17.1942 12.0416 17.1942C11.383 17.1942 11.0516 16.6668 11.0516 15.6253V9.71462C11.0516 6.93827 9.33397 5.54344 5.90329 5.54344C4.33767 5.54344 2.74883 5.85109 1.1513 6.47044V8.94839C2.56024 8.1544 3.95119 7.75539 5.33228 7.75539C6.88398 7.75539 7.65751 8.4528 7.65751 9.83895V11.0545H6.71396C4.55876 11.0545 2.90087 11.4495 1.74087 12.2481C0.58029 13.0507 0 14.1842 0 15.6617C0 16.7905 0.3592 17.7221 1.0776 18.4334C1.796 19.1447 2.7262 19.5033 3.87286 19.5033C5.21739 19.5033 6.47894 18.925 7.65751 17.7638H7.81419C8.22445 18.925 9.16394 19.5033 10.6094 19.5033C11.1439 19.5033 11.7607 19.3974 12.4513 19.1997V17.1531ZM106.278 15.8317V13.1201H105.445C103.157 13.1201 102.015 13.8494 102.015 15.3089C102.015 15.7993 102.18 16.2174 102.512 16.5523C102.844 16.8917 103.249 17.0617 103.737 17.0617C104.565 17.0617 105.413 16.6483 106.278 15.8317ZM102.494 19.5033C103.838 19.5033 105.1 18.925 106.278 17.7638H106.435C106.85 18.925 107.78 19.5033 109.23 19.5033C109.806 19.5033 110.46 19.3882 111.215 19.1586L111.128 17.1444C110.939 17.1762 110.782 17.1942 110.662 17.1942C110 17.1942 109.672 16.6668 109.672 15.6253V9.71462C109.672 6.93827 107.955 5.54344 104.524 5.54344C102.954 5.54344 101.37 5.85109 99.7675 6.47044V8.94839C101.176 8.1544 102.572 7.75539 103.949 7.75539C105.501 7.75539 106.278 8.4528 106.278 9.83895V11.0545H105.335C103.18 11.0545 101.517 11.4495 100.361 12.2481C99.2012 13.0507 98.6209 14.1842 98.6209 15.6617C98.6209 16.7905 98.9801 17.7221 99.6985 18.4334C100.412 19.1447 101.346 19.5033 102.494 19.5033ZM116.667 18.1628L114.07 24H117.676L125.909 5.54344L122.299 5.566L118.762 13.4827L115.871 5.54344H112.071L116.667 18.1628Z" fill="#F4244A"/>
</svg>
