<svg width="114" height="20" viewBox="0 0 114 20" fill="none" xmlns="http://www.w3.org/2000/svg">
<path fill-rule="evenodd" clip-rule="evenodd" d="M40.9187 14.9655C39.8787 16.3874 38.4 17.0993 36.4833 17.0993C34.5767 17.0993 33.0987 16.3529 32.05 14.8637C31.574 14.1822 31.222 13.4093 30.994 12.5426C30.764 11.6778 30.6487 10.7596 30.6487 9.79293C30.6487 7.77373 31.176 6.1296 32.224 4.85853C33.2827 3.56333 34.7067 2.9148 36.4973 2.9148C38.354 2.9148 39.82 3.60813 40.894 4.9974C41.87 6.27627 42.356 7.9 42.356 9.86813C42.356 11.9529 41.878 13.6522 40.9187 14.9655ZM68.3987 3.99187H66.852C64.9193 0.944467 62.3967 0 59.592 0C56.8027 0 54.5347 0.9096 52.9453 2.7252C52.4587 3.2778 52.0567 3.89373 51.7233 4.56293C50.786 4.15113 49.524 3.75707 48.0433 3.74293C46.638 3.7552 45.442 4.11 44.5133 4.5078C44.196 3.91813 43.8227 3.3678 43.38 2.86593C41.724 0.972933 39.438 0.0266667 36.522 0.0266667C33.7813 0.0266667 31.5493 0.9526 29.8247 2.80073C29.4833 3.1678 29.1827 3.5696 28.906 3.99187H26.5327C25.4547 3.99187 24.5793 4.87707 24.5793 5.96627C24.5793 7.05553 25.4547 7.94073 26.5327 7.94073H27.3993C27.314 8.45293 27.264 8.9648 27.264 9.47073C27.264 10.6355 27.3587 11.6452 27.5467 12.4996C27.732 13.3522 28.0053 14.1559 28.3627 14.9089C28.722 15.6615 29.164 16.3485 29.6873 16.9707C30.2127 17.5952 30.8147 18.1315 31.4927 18.58C32.172 19.0311 32.9247 19.3796 33.7487 19.6263C34.5727 19.8755 35.5707 20 36.742 20C37.9093 20 39.0667 19.7367 40.208 19.2126C41.3487 18.6863 42.328 17.9681 43.144 17.0604C44.8747 15.1329 45.7413 12.7404 45.7413 9.88073C45.7413 9.16667 45.6933 8.4874 45.596 7.84073C46.234 7.5104 47.1247 7.1574 48.0433 7.17187C49.0613 7.17187 50.0513 7.57147 50.7313 7.92447C50.6547 8.52593 50.6087 9.15447 50.6087 9.8174C50.6087 17.0567 54.864 20 60.0687 20C63.9827 20 65.8667 18.3067 67.1293 16.3281C67.9893 14.9781 68.056 13.4745 66.7167 13.1096C65.602 12.8037 65.172 13.6239 64.836 14.2649C64.7573 14.4145 64.684 14.5543 64.608 14.6678C63.6593 16.0896 62.5687 16.9993 60.0927 16.9993C56.124 16.9993 53.9953 13.5115 53.9953 9.8174C53.9953 7.7652 54.5873 6.3152 55.3873 5.08707C55.8053 4.4304 56.8673 2.87407 59.7993 2.87407C60.676 2.87407 63.546 3.2552 64.8507 6.67813C64.8527 6.68213 64.8573 6.68707 64.8627 6.69227V6.69233C64.868 6.6978 64.874 6.7036 64.8767 6.70887C65.1673 7.43073 65.8667 7.94073 66.6847 7.94073H68.3987C69.4773 7.94073 70.354 7.05553 70.354 5.96627C70.354 4.87707 69.478 3.99187 68.3987 3.99187ZM20.154 1.9882C20.1867 2.1994 20.2213 2.42633 20.254 2.67147L22.436 18.8315C22.4527 18.914 22.4627 19.0005 22.4627 19.0887C22.4627 19.4947 22.3153 19.6975 22.02 19.6975H19.9253C19.7667 19.6975 19.628 19.649 19.5093 19.5527C19.3913 19.4543 19.326 19.3317 19.3073 19.1854L18.4367 11.8927C18.3287 10.9745 18.2453 10.0666 18.19 9.17253C18.1347 8.27667 18.076 7.34247 18.0087 6.36773L17.882 4.63433C17.882 4.6022 17.872 4.5862 17.8493 4.5862C17.8293 4.5862 17.8153 4.5982 17.8067 4.62227L17.24 6.62313C17.122 7.03093 16.9913 7.43653 16.848 7.84253L12.9127 18.1987C12.8693 18.3216 12.786 18.4339 12.6593 18.5405C12.5333 18.6448 12.4087 18.6991 12.28 18.6991H10.3C10.0393 18.6991 9.82932 18.5343 9.66999 18.2107C6.75199 11.5994 5.19799 8.0636 5.00865 7.60547C4.81865 7.14547 4.65399 6.70953 4.51065 6.29373L3.94132 4.60987C3.93332 4.5862 3.91932 4.5738 3.89932 4.5738C3.87799 4.5738 3.86199 4.5898 3.85399 4.62227V6.599C3.85399 8.3226 3.78265 10.0845 3.63999 11.8807L3.07132 19.1854C3.05465 19.3156 2.97732 19.4342 2.83865 19.5407C2.70199 19.6454 2.55492 19.6975 2.40419 19.6975H0.662385C0.460585 19.6975 0.295452 19.6133 0.165119 19.4422C0.0325187 19.2715 -0.018548 19.0647 0.00591866 18.8199L1.52112 2.76773C1.57812 2.09473 1.66365 1.66687 1.77179 1.48807C1.96579 1.16453 2.32052 1 2.83199 1H4.19465C4.60665 1 4.89465 1.0522 5.05332 1.15873C5.34665 1.34547 5.60399 1.69893 5.82199 2.21947L11.2587 15.0265L16.0167 2.20747C16.294 1.402 16.7627 1 17.428 1H18.8527C19.5933 1 20.028 1.3294 20.154 1.9882Z" fill="#FA4465"/>
<path fill-rule="evenodd" clip-rule="evenodd" d="M72.241 19.9C72.457 19.9 72.6235 19.8415 72.7405 19.7245C72.8575 19.6075 72.925 19.504 72.943 19.414L74.347 15.769H82.96L84.364 19.414C84.4 19.504 84.472 19.6075 84.58 19.7245C84.688 19.8415 84.85 19.9 85.066 19.9H86.767C86.911 19.9 87.037 19.846 87.145 19.738C87.253 19.63 87.307 19.495 87.307 19.333C87.307 19.261 87.289 19.18 87.253 19.09L80.638 1.621C80.566 1.441 80.4625 1.2925 80.3275 1.1755C80.1925 1.0585 79.999 1 79.747 1H77.56C77.308 1 77.1145 1.0585 76.9795 1.1755C76.8445 1.2925 76.741 1.441 76.669 1.621L70.054 19.09C70.018 19.18 70 19.261 70 19.333C70 19.495 70.054 19.63 70.162 19.738C70.27 19.846 70.396 19.9 70.54 19.9H72.241ZM82.123 13.204H75.184L78.64 3.997L82.123 13.204ZM94.1475 19.7245C94.0305 19.8415 93.873 19.9 93.675 19.9H91.947C91.767 19.9 91.6185 19.8415 91.5015 19.7245C91.3845 19.6075 91.326 19.459 91.326 19.279V1.648C91.326 1.45 91.3845 1.2925 91.5015 1.1755C91.6185 1.0585 91.767 1 91.947 1H98.67C100.758 1 102.405 1.486 103.611 2.458C104.817 3.43 105.42 4.861 105.42 6.751C105.42 8.119 105.082 9.2395 104.407 10.1125C103.732 10.9855 102.81 11.602 101.64 11.962L105.717 19.036C105.771 19.144 105.798 19.243 105.798 19.333C105.798 19.495 105.744 19.63 105.636 19.738C105.528 19.846 105.402 19.9 105.258 19.9H103.584C103.278 19.9 103.048 19.819 102.895 19.657C102.742 19.495 102.621 19.333 102.531 19.171L98.751 12.448H94.323V19.279C94.323 19.459 94.2645 19.6075 94.1475 19.7245ZM98.589 9.937H94.323V3.484H98.589C99.867 3.484 100.812 3.763 101.424 4.321C102.036 4.879 102.342 5.68 102.342 6.724C102.342 7.768 102.031 8.5645 101.41 9.1135C100.789 9.6625 99.849 9.937 98.589 9.937ZM113.316 19.7245C113.199 19.8415 113.05 19.9 112.87 19.9H111.061C110.881 19.9 110.733 19.8415 110.616 19.7245C110.499 19.6075 110.44 19.459 110.44 19.279V1.621C110.44 1.441 110.499 1.2925 110.616 1.1755C110.733 1.0585 110.881 1 111.061 1H112.87C113.05 1 113.199 1.0585 113.316 1.1755C113.433 1.2925 113.491 1.441 113.491 1.621V19.279C113.491 19.459 113.433 19.6075 113.316 19.7245Z" fill="#FA4465"/>
</svg>
